<?xml version="1.0" encoding="UTF-8"?>
<svg version="1.1" xmlns="http://www.w3.org/2000/svg" width="288" height="86">
<path d="M0 0 C3.444375 -0.0825 6.88875 -0.165 10.4375 -0.25 C12.03742798 -0.30462402 12.03742798 -0.30462402 13.66967773 -0.36035156 C21.19400854 -0.4466701 27.50206994 0.75554314 33.15625 6 C33.5996875 6.66 34.043125 7.32 34.5 8 C34.9640625 8.66 35.428125 9.32 35.90625 10 C38.28534822 14.35035104 38.7165234 19.12597453 38 24 C35.93579262 30.33730957 33.28615275 34.63090948 27.4921875 38.03393555 C22.49356007 39.97158922 17.27725017 39.50742981 12 39.3125 C6.06 39.1578125 6.06 39.1578125 0 39 C0 26.13 0 13.26 0 0 Z " fill="#11ACA0" transform="translate(31,46)"/>
<path d="M0 0 C4.08036767 3.497458 6.30878135 5.9851254 7.625 11.25 C4.655 12.24 1.685 13.23 -1.375 14.25 C-1.99375 13.445625 -2.6125 12.64125 -3.25 11.8125 C-5.11664041 9.21125481 -5.11664041 9.21125481 -7.375 8.25 C-13.02384902 7.87158617 -13.02384902 7.87158617 -18.375 9.25 C-20.6715948 13.15421116 -20.77218212 16.80156023 -20.375 21.25 C-19.11860091 24.07689795 -18.04948232 25.72004961 -15.625 27.625 C-12.18667782 28.58008949 -9.81102312 28.15421661 -6.375 27.25 C-5.570625 26.38375 -4.76625 25.5175 -3.9375 24.625 C-1.375 22.25 -1.375 22.25 0.7109375 22.14453125 C2.69929701 22.4061575 4.66648099 22.81846191 6.625 23.25 C7.375 24.875 7.375 24.875 7.625 27.25 C4.77480828 32.51189241 1.37187144 36.33437619 -4.375 38.25 C-18.14305649 39.20585973 -18.14305649 39.20585973 -23.375 35.25 C-28.54162833 30.18345164 -31.38838004 25.83410487 -31.75 18.5 C-31.59743175 13.10390199 -30.55153122 8.67686798 -27.375 4.25 C-19.4098811 -2.82350111 -9.72790034 -5.04409647 0 0 Z " fill="#000000" transform="translate(139.375,47.75)"/>
<path d="M0 0 C0.66 0 1.32 0 2 0 C2.28609131 0.57741943 2.57218262 1.15483887 2.86694336 1.74975586 C8.23239271 12.56527633 13.62749503 23.35398108 19.35717773 33.98217773 C22 38.90226733 22 38.90226733 22 40 C8.47 40 -5.06 40 -19 40 C-16.75 33.25 -16.75 33.25 -15.21240234 30.19775391 C-14.70209976 29.17737534 -14.70209976 29.17737534 -14.18148804 28.13638306 C-13.81995636 27.42364227 -13.45842468 26.71090149 -13.0859375 25.9765625 C-12.71143463 25.23038666 -12.33693176 24.48421082 -11.95108032 23.71542358 C-10.76282034 21.35003203 -9.56900618 18.9874953 -8.375 16.625 C-7.56473474 15.01450873 -6.75483502 13.40383349 -5.9453125 11.79296875 C-3.96776546 7.85983766 -1.98523484 3.92925592 0 0 Z " fill="#F1A424" transform="translate(165,45)"/>
<path d="M0 0 C3.63 0 7.26 0 11 0 C12.83822975 4.74860137 14.67115818 9.49920229 16.49926758 14.25170898 C17.12152217 15.86717453 17.74520552 17.48209051 18.37036133 19.09643555 C19.27023156 21.42092135 20.1648949 23.74735438 21.05859375 26.07421875 C21.3377916 26.79212082 21.61698944 27.51002289 21.90464783 28.24967957 C23.29029903 31.87273122 24.23342477 35.16712386 25 39 C21.37 39 17.74 39 14 39 C13.34 37.02 12.68 35.04 12 33 C5.07 32.505 5.07 32.505 -2 32 C-2.66 34.31 -3.32 36.62 -4 39 C-7.3 39 -10.6 39 -14 39 C-13.38481347 34.28658557 -12.05595429 30.09864679 -10.3125 25.703125 C-10.04993408 25.02828064 -9.78736816 24.35343628 -9.5168457 23.65814209 C-8.68328983 21.51994122 -7.84166706 19.38501912 -7 17.25 C-6.43438654 15.80097995 -5.86927733 14.35176295 -5.3046875 12.90234375 C-1.21194657 2.42389313 -1.21194657 2.42389313 0 0 Z M5 13 C2.70954986 17.81209901 2.70954986 17.81209901 2 23 C4.31 23 6.62 23 9 23 C8.01 19.7 7.02 16.4 6 13 C5.67 13 5.34 13 5 13 Z " fill="#000000" transform="translate(56,0)"/>
<path d="M0 0 C3.63 0 7.26 0 11 0 C14.72867809 8.01665789 17.74147401 16.25814402 20.75 24.5625 C21.26142887 25.96690247 21.77314546 27.3712002 22.28515625 28.77539062 C23.52675449 32.18239348 24.76446171 35.59079413 26 39 C22.37 39 18.74 39 15 39 C14.01 35.535 14.01 35.535 13 32 C8.05 32 3.1 32 -2 32 C-2.33 33.98 -2.66 35.96 -3 38 C-4 39 -4 39 -6.28515625 39.09765625 C-8.85677083 39.06510417 -11.42838542 39.03255208 -14 39 C-11.63630506 30.42291114 -8.50132211 22.16859568 -5.3125 13.875 C-4.79589779 12.52356214 -4.27961945 11.17200042 -3.76367188 9.8203125 C-2.51283904 6.54544107 -1.257653 3.2722593 0 0 Z M5 13 C4.01 16.3 3.02 19.6 2 23 C4.31 23 6.62 23 9 23 C8.71872579 21.51882199 8.42466268 20.04006751 8.125 18.5625 C7.88136719 17.32693359 7.88136719 17.32693359 7.6328125 16.06640625 C7.42398437 15.38449219 7.21515625 14.70257813 7 14 C6.34 13.67 5.68 13.34 5 13 Z " fill="#000000" transform="translate(14,0)"/>
<path d="M0 0 C2.94448438 2.17666429 4.07365119 3.79556345 5.0078125 7.33203125 C5.0490625 8.21890625 5.0903125 9.10578125 5.1328125 10.01953125 C-0.14087171 11.77742599 -0.14087171 11.77742599 -2.8671875 12.01953125 C-4.9921875 10.14453125 -4.9921875 10.14453125 -6.8671875 8.01953125 C-10.0350195 7.68504866 -10.0350195 7.68504866 -12.8671875 8.01953125 C-12.8671875 9.33953125 -12.8671875 10.65953125 -12.8671875 12.01953125 C-11.98675781 12.261875 -11.10632813 12.50421875 -10.19921875 12.75390625 C-9.03777344 13.0890625 -7.87632812 13.42421875 -6.6796875 13.76953125 C-5.53113281 14.094375 -4.38257813 14.41921875 -3.19921875 14.75390625 C0.8157955 16.27895269 4.16147487 18.07685599 6.1328125 22.01953125 C6.77570584 26.01523542 6.98262508 29.5646306 4.8984375 33.1328125 C2.41338543 36.10380297 0.86483631 37.77552331 -2.8671875 39.01953125 C-8.48738385 39.51423829 -13.30308935 39.78786017 -18.4296875 37.26953125 C-22.31071674 33.68704272 -24.13081541 31.3214103 -24.8671875 26.01953125 C-21.8971875 25.35953125 -18.9271875 24.69953125 -15.8671875 24.01953125 C-15.3103125 25.22609375 -15.3103125 25.22609375 -14.7421875 26.45703125 C-13.06256229 29.30255291 -13.06256229 29.30255291 -9.8046875 29.89453125 C-6.9331394 30.25452202 -6.9331394 30.25452202 -4.8671875 29.01953125 C-4.21505458 26.9948987 -4.21505458 26.9948987 -3.8671875 25.01953125 C-4.74761719 24.849375 -5.62804687 24.67921875 -6.53515625 24.50390625 C-7.69660156 24.2615625 -8.85804688 24.01921875 -10.0546875 23.76953125 C-11.20324219 23.5375 -12.35179687 23.30546875 -13.53515625 23.06640625 C-17.11846397 21.9405839 -19.15137817 20.58142817 -21.8671875 18.01953125 C-23.60821952 14.53746721 -23.30941136 10.82650183 -22.8671875 7.01953125 C-21.05454934 2.94109538 -19.19642335 0.86991966 -15.1796875 -0.91796875 C-9.9978441 -2.5294545 -4.87531293 -2.56004926 0 0 Z " fill="#000000" transform="translate(281.8671875,46.98046875)"/>
<path d="M0 0 C3.3 0 6.6 0 10 0 C10.01458252 0.83772949 10.02916504 1.67545898 10.04418945 2.53857422 C10.10520707 5.64378902 10.17935065 8.74833117 10.26245117 11.85302734 C10.31209959 13.85882336 10.34654164 15.86497687 10.38085938 17.87109375 C10.41630859 19.12792969 10.45175781 20.38476562 10.48828125 21.6796875 C10.51446533 22.84226074 10.54064941 24.00483398 10.56762695 25.20263672 C10.71031006 26.1257666 10.85299316 27.04889648 11 28 C13.83573263 30.33775029 13.83573263 30.33775029 17.125 29.75 C18.07375 29.5025 19.0225 29.255 20 29 C21.36839363 26.26321275 21.21634818 23.95735576 21.31640625 20.8984375 C21.35830078 19.68671875 21.40019531 18.475 21.44335938 17.2265625 C21.48267578 15.95554687 21.52199219 14.68453125 21.5625 13.375 C21.60568359 12.09625 21.64886719 10.8175 21.69335938 9.5 C21.79969886 6.33344652 21.90172833 3.16681247 22 0 C24.97 0 27.94 0 31 0 C31.0744013 4.32328804 31.12871968 8.64623255 31.16479492 12.9699707 C31.17984066 14.43943782 31.20028238 15.90886034 31.22631836 17.37817383 C31.26288955 19.4957177 31.27976801 21.61266565 31.29296875 23.73046875 C31.3086792 25.00301514 31.32438965 26.27556152 31.34057617 27.58666992 C30.85009683 32.50236284 29.08872187 34.96711002 25.5625 38.3125 C19.90288234 40.99337152 13.78437551 41.18178744 7.7734375 39.3046875 C3.40805897 37.09413412 1.78429193 34.40932576 0 30 C-0.34057617 26.56494141 -0.34057617 26.56494141 -0.29296875 22.8515625 C-0.28872391 22.19417084 -0.28447906 21.53677917 -0.28010559 20.85946655 C-0.26344977 18.78087609 -0.2258262 16.70329226 -0.1875 14.625 C-0.17243605 13.20704536 -0.15875065 11.78907536 -0.14648438 10.37109375 C-0.11359038 6.9137411 -0.06190165 3.45696897 0 0 Z " fill="#000000" transform="translate(72,46)"/>
<path d="M0 0 C8.25 0 16.5 0 25 0 C25 2.97 25 5.94 25 9 C20.05 9 15.1 9 10 9 C10 11.31 10 13.62 10 16 C14.62 16 19.24 16 24 16 C24 18.64 24 21.28 24 24 C19.38 24 14.76 24 10 24 C10 25.98 10 27.96 10 30 C14.95 30 19.9 30 25 30 C25 32.97 25 35.94 25 39 C16.75 39 8.5 39 0 39 C0 26.13 0 13.26 0 0 Z " fill="#000000" transform="translate(0,46)"/>
<path d="M0 0 C10.89 0 21.78 0 33 0 C33 2.97 33 5.94 33 9 C29.04 9 25.08 9 21 9 C21 18.9 21 28.8 21 39 C18.03 39 15.06 39 12 39 C12 29.1 12 19.2 12 9 C8.04 9 4.08 9 0 9 C0 6.03 0 3.06 0 0 Z " fill="#000000" transform="translate(182,46)"/>
<path d="M0 0 C10.56 0 21.12 0 32 0 C32 2.97 32 5.94 32 9 C21.44 9 10.88 9 0 9 C0 6.03 0 3.06 0 0 Z " fill="#712FDA" transform="translate(221,76)"/>
<path d="M0 0 C10.56 0 21.12 0 32 0 C32 2.97 32 5.94 32 9 C21.44 9 10.88 9 0 9 C0 6.03 0 3.06 0 0 Z " fill="#712FDA" transform="translate(221,61)"/>
<path d="M0 0 C10.56 0 21.12 0 32 0 C32 2.97 32 5.94 32 9 C21.44 9 10.88 9 0 9 C0 6.03 0 3.06 0 0 Z " fill="#712FDA" transform="translate(221,46)"/>
</svg>
